<svg id="visual" viewBox="0 0 900 600" width="900" height="600" xmlns="http://www.w3.org/2000/svg" xmlns:xlink="http://www.w3.org/1999/xlink" version="1.1"><path d="M0 37L300 31L600 49L900 37L900 0L600 0L300 0L0 0Z" fill="#7ed0e6"></path><path d="M0 193L300 217L600 187L900 103L900 35L600 47L300 29L0 35Z" fill="#66bcd9"></path><path d="M0 271L300 295L600 283L900 211L900 101L600 185L300 215L0 191Z" fill="#4fa7cc"></path><path d="M0 319L300 325L600 313L900 259L900 209L600 281L300 293L0 269Z" fill="#3a93bf"></path><path d="M0 379L300 391L600 349L900 289L900 257L600 311L300 323L0 317Z" fill="#267fb1"></path><path d="M0 469L300 535L600 445L900 499L900 287L600 347L300 389L0 377Z" fill="#146ba2"></path><path d="M0 529L300 577L600 511L900 559L900 497L600 443L300 533L0 467Z" fill="#065793"></path><path d="M0 601L300 601L600 601L900 601L900 557L600 509L300 575L0 527Z" fill="#034482"></path></svg>